<svg width="142" height="32" viewBox="0 0 142 32" fill="none" xmlns="http://www.w3.org/2000/svg">
<path d="M51.0408 29.6553L52.2457 31.9733H49.6218L48.4169 29.6553L47.1585 27.2307L47.1049 27.1241C46.7033 26.458 45.9537 26.0051 45.1237 26.0051H42.7942V31.9999H40.4648V18.9977H48.7114C49.6753 18.9977 50.5589 19.3974 51.2014 20.0102C51.8441 20.6497 52.2189 21.5289 52.2189 22.4881C52.2189 23.9002 51.3889 25.1258 50.1572 25.6854C49.836 25.8452 49.5147 25.9252 49.1398 25.9518L51.0408 29.6553ZM48.7114 23.6871C48.8721 23.6871 49.0595 23.6604 49.1934 23.5805C49.6218 23.3939 49.9163 22.9676 49.9163 22.5147C49.9163 22.0884 49.7021 21.7953 49.5682 21.6621C49.4076 21.5023 49.1398 21.3158 48.7382 21.3158H42.821V23.7137L48.7114 23.6871Z" fill="#0C68FF"/>
<path d="M56.4483 22.4615V23.6604H64.8555V25.9785H56.4483V28.4297C56.4483 29.0692 56.9838 29.6286 57.6532 29.6286H67.2117V31.9467H57.6532C55.6987 31.9467 54.1458 30.3747 54.1458 28.4297V22.4347C54.1458 20.4898 55.7254 18.9177 57.6532 18.9177H67.2117V21.2358H57.6532C57.0106 21.2891 56.4483 21.822 56.4483 22.4615Z" fill="#0C68FF"/>
<path d="M79.8244 20.0102C80.467 20.6497 80.8417 21.5289 80.8417 22.4881C80.8417 23.9003 80.0117 25.1258 78.7801 25.6854C78.4588 25.8452 78.1376 25.9252 77.7627 25.9518H77.6556V25.9785H71.3904V31.9733H69.061V18.9711H77.3076C78.2982 18.9711 79.1817 19.3441 79.8244 20.0102ZM77.843 23.5538C78.2714 23.3673 78.5659 22.941 78.5659 22.4881C78.5659 22.0618 78.3517 21.7687 78.2179 21.6355C78.0572 21.4757 77.7895 21.2891 77.3879 21.2891H71.4707V23.6871H77.3879C77.5217 23.6871 77.6824 23.6337 77.843 23.5538Z" fill="#0C68FF"/>
<path d="M94.5227 25.4722C94.5227 29.0691 91.5779 31.9733 87.9898 31.9733C84.402 31.9733 81.4568 29.0425 81.4568 25.4722C81.4568 21.9019 84.402 18.9711 87.9898 18.9711C91.5779 18.9711 94.5227 21.8752 94.5227 25.4722ZM92.167 25.4722C92.167 23.1542 90.2924 21.2891 87.963 21.2891C85.6336 21.2891 83.7594 23.1542 83.7594 25.4722C83.7594 27.7902 85.6336 29.6553 87.963 29.6553C90.2924 29.6553 92.167 27.7636 92.167 25.4722Z" fill="#0C68FF"/>
<path d="M106.49 29.682L107.694 31.9999H105.07L103.866 29.682L102.607 27.2574L102.553 27.1507C102.152 26.4846 101.402 26.0317 100.572 26.0317H98.2432V31.9999H95.9133V18.9977H104.16C105.124 18.9977 106.008 19.3974 106.65 20.0102C107.292 20.6497 107.667 21.5289 107.667 22.4881C107.667 23.9002 106.837 25.1258 105.605 25.6854C105.284 25.8452 104.964 25.9252 104.588 25.9518L106.49 29.682ZM104.16 23.6871C104.321 23.6871 104.508 23.6604 104.642 23.5805C105.07 23.3939 105.365 22.9676 105.365 22.5147C105.365 22.0884 105.15 21.7953 105.016 21.6621C104.856 21.5023 104.588 21.3158 104.187 21.3158H98.269V23.7137L104.16 23.6871Z" fill="#0C68FF"/>
<path d="M122.02 18.9711V21.2891H116.665V32H114.335V21.3158H108.981V18.9977H122.02V18.9711Z" fill="#0C68FF"/>
<path d="M55.057 0.12793V2.7124H49.0595V14.6489H46.4624V2.7124H40.4648V0.12793H55.057Z" fill="#0C68FF"/>
<path d="M69.8904 7.37509C69.8904 11.3718 66.6234 14.6489 62.5804 14.6489C58.5375 14.6489 55.271 11.3984 55.271 7.37509C55.271 3.35189 58.5375 0.101318 62.5804 0.101318C66.6234 0.101318 69.8904 3.35189 69.8904 7.37509ZM67.2927 7.37509C67.2927 4.7907 65.1776 2.71243 62.6073 2.71243C60.0368 2.71243 57.9217 4.81733 57.9217 7.37509C57.9217 9.93295 60.0368 12.0379 62.6073 12.0379C65.1776 12.0379 67.2927 9.93295 67.2927 7.37509Z" fill="#0C68FF"/>
<path d="M85.5778 7.37509C85.5778 11.3718 82.312 14.6489 78.2692 14.6489C74.2255 14.6489 70.9597 11.3984 70.9597 7.37509C70.9597 3.35189 74.2255 0.101318 78.2692 0.101318C82.312 0.101318 85.5778 3.35189 85.5778 7.37509ZM82.9807 7.37509C82.9807 4.7907 80.8664 2.71243 78.2951 2.71243C75.7248 2.71243 73.6105 4.81733 73.6105 7.37509C73.6105 9.93295 75.7248 12.0379 78.2951 12.0379C80.8664 12.0379 82.9807 9.93295 82.9807 7.37509Z" fill="#0C68FF"/>
<path d="M99.2072 12.0644V14.6489H91.7904C91.0671 14.6489 90.3716 14.489 89.7556 14.1693C88.8455 13.7163 88.0954 12.9703 87.6403 12.0644C87.3194 11.4516 87.1584 10.7589 87.1584 10.0395V0.12793H89.7556V10.2793C89.8897 11.1852 90.612 11.9312 91.5221 12.0378L99.2072 12.0644Z" fill="#0C68FF"/>
<g clip-path="url(#clip0_15_9460)">
<path d="M3.20805 31.7205C2.78466 31.7205 2.35403 31.6358 1.93996 31.4581C0.312663 30.7576 -0.438874 28.8741 0.262975 27.2489L8.62822 7.87144C9.13442 6.69981 10.2897 5.93938 11.5681 5.93628H11.5754C12.8517 5.93628 14.006 6.69051 14.5163 7.85904L22.9851 27.2365C23.6942 28.8576 22.9509 30.7452 21.3267 31.4529C19.7025 32.1607 17.8113 31.4188 17.1022 29.7978L11.593 17.1918L6.15623 29.7843C5.63346 30.9952 4.45026 31.7205 3.20805 31.7205Z" fill="#0C68FF"/>
<mask id="mask0_15_9460" style="mask-type:alpha" maskUnits="userSpaceOnUse" x="0" y="5" width="24" height="27">
<path d="M3.20805 31.7205C2.78466 31.7205 2.35403 31.6358 1.93996 31.4581C0.312663 30.7576 -0.438874 28.8741 0.262975 27.2489L8.62822 7.87144C9.13442 6.69981 10.2897 5.93938 11.5681 5.93628H11.5754C12.8517 5.93628 14.006 6.69051 14.5163 7.85904L22.9851 27.2365C23.6942 28.8576 22.9509 30.7452 21.3267 31.4529C19.7025 32.1607 17.8113 31.4188 17.1022 29.7978L11.593 17.1918L6.15623 29.7843C5.63346 30.9952 4.45026 31.7205 3.20805 31.7205Z" fill="#0C68FF"/>
</mask>
<g mask="url(#mask0_15_9460)">
<path d="M15.4819 26.7793C15.4819 26.7793 17.5129 28.016 19.751 22.3128L25.0687 7.72524C25.813 5.68469 27.757 4.32605 29.933 4.32605H32.4702C32.1679 5.1526 31.2145 7.86885 30.9122 8.69437C28.9226 14.1331 26.8916 19.5573 24.9641 25.0188C24.4869 26.3691 24.048 27.8755 22.9921 28.8953C22.0615 29.7952 20.7696 30.3624 19.4601 30.2725C19.0005 30.2405 18.5409 30.1682 18.103 30.0225C16.6082 29.5266 15.9219 28.1927 15.4819 26.7783V26.7793Z" fill="black" fill-opacity="0.2"/>
</g>
<path d="M16.4814 28.3731C16.4814 28.3731 18.5125 29.6098 20.7505 23.9066L25.1215 12.1227C25.8658 10.0822 27.8098 8.72351 29.9858 8.72351H32.523C32.2207 9.55006 31.2673 12.2663 30.9651 13.0918C28.9754 18.5305 27.8911 21.1511 25.9636 26.6125C25.4864 27.9629 25.0475 29.4693 23.9916 30.4891C23.061 31.389 21.7691 31.9562 20.4596 31.8663C20 31.8343 19.5404 31.762 19.1025 31.6163C17.6077 31.1203 16.9214 29.7865 16.4814 28.3721V28.3731Z" fill="url(#paint0_linear_15_9460)"/>
</g>
<circle cx="30.8512" cy="3.30139" r="3.30139" fill="#0C68FF"/>
<defs>
<linearGradient id="paint0_linear_15_9460" x1="18.495" y1="31.8756" x2="33.1543" y2="7.92636" gradientUnits="userSpaceOnUse">
<stop stop-color="white"/>
<stop offset="1" stop-color="#0C68FF"/>
</linearGradient>
<clipPath id="clip0_15_9460">
<rect width="33.4693" height="25.9558" fill="white" transform="translate(0 5.9198)"/>
</clipPath>
</defs>
</svg>
