<svg width="676" height="40" viewBox="0 0 676 40" fill="none" xmlns="http://www.w3.org/2000/svg">
<path d="M7.75 4C7.75 2.20508 9.20508 0.75 11 0.75H27C27.1212 0.75 27.2375 0.798159 27.3232 0.883885L38.1161 11.6768C38.2018 11.7625 38.25 11.8788 38.25 12V36C38.25 37.7949 36.7949 39.25 35 39.25H11C9.20507 39.25 7.75 37.7949 7.75 36V4Z" fill="white" stroke="#D0D5DD" stroke-width="1.5"/>
<path d="M27 0.5V8C27 10.2091 28.7909 12 31 12H38.5" stroke="#D0D5DD" stroke-width="1.5"/>
<rect x="1" y="18" width="29" height="16" rx="2" fill="#155EEF"/>
<path d="M7.40163 30H4.82351V22.7273H7.42294C8.15447 22.7273 8.78421 22.8729 9.31214 23.1641C9.84008 23.4529 10.2461 23.8684 10.5302 24.4105C10.8166 24.9527 10.9599 25.6013 10.9599 26.3565C10.9599 27.1141 10.8166 27.7652 10.5302 28.3097C10.2461 28.8542 9.83771 29.272 9.30504 29.5632C8.77474 29.8544 8.14027 30 7.40163 30ZM6.36115 28.6825H7.33771C7.79226 28.6825 8.1746 28.602 8.48473 28.4411C8.79723 28.2777 9.03161 28.0256 9.18786 27.6847C9.34647 27.3414 9.42578 26.8987 9.42578 26.3565C9.42578 25.8191 9.34647 25.38 9.18786 25.0391C9.03161 24.6982 8.79841 24.4472 8.48828 24.2862C8.17815 24.1252 7.79581 24.0447 7.34126 24.0447H6.36115V28.6825ZM18.7821 26.3636C18.7821 27.1567 18.6318 27.8314 18.3311 28.3878C18.0328 28.9441 17.6257 29.3691 17.1096 29.6626C16.5958 29.9538 16.0182 30.0994 15.3766 30.0994C14.7303 30.0994 14.1503 29.9527 13.6365 29.6591C13.1228 29.3655 12.7168 28.9406 12.4185 28.3842C12.1202 27.8279 11.9711 27.1544 11.9711 26.3636C11.9711 25.5705 12.1202 24.8958 12.4185 24.3395C12.7168 23.7831 13.1228 23.3594 13.6365 23.0682C14.1503 22.7746 14.7303 22.6278 15.3766 22.6278C16.0182 22.6278 16.5958 22.7746 17.1096 23.0682C17.6257 23.3594 18.0328 23.7831 18.3311 24.3395C18.6318 24.8958 18.7821 25.5705 18.7821 26.3636ZM17.2232 26.3636C17.2232 25.8499 17.1462 25.4167 16.9924 25.0639C16.8408 24.7112 16.6266 24.4437 16.3496 24.2614C16.0726 24.0791 15.7483 23.9879 15.3766 23.9879C15.0049 23.9879 14.6806 24.0791 14.4036 24.2614C14.1266 24.4437 13.9112 24.7112 13.7573 25.0639C13.6058 25.4167 13.53 25.8499 13.53 26.3636C13.53 26.8774 13.6058 27.3106 13.7573 27.6634C13.9112 28.0161 14.1266 28.2836 14.4036 28.4659C14.6806 28.6482 15.0049 28.7393 15.3766 28.7393C15.7483 28.7393 16.0726 28.6482 16.3496 28.4659C16.6266 28.2836 16.8408 28.0161 16.9924 27.6634C17.1462 27.3106 17.2232 26.8774 17.2232 26.3636ZM26.3381 25.2734H24.7827C24.7543 25.0722 24.6963 24.8935 24.6087 24.7372C24.5211 24.5786 24.4086 24.4437 24.2713 24.3324C24.134 24.2211 23.9754 24.1359 23.7955 24.0767C23.6179 24.0175 23.425 23.9879 23.2166 23.9879C22.8402 23.9879 22.5123 24.0814 22.233 24.2685C21.9536 24.4531 21.737 24.723 21.5831 25.0781C21.4292 25.4309 21.3523 25.8594 21.3523 26.3636C21.3523 26.8821 21.4292 27.3177 21.5831 27.6705C21.7393 28.0232 21.9571 28.2895 22.2365 28.4695C22.5159 28.6494 22.839 28.7393 23.206 28.7393C23.4119 28.7393 23.6025 28.7121 23.7777 28.6577C23.9553 28.6032 24.1127 28.5239 24.25 28.4197C24.3873 28.3132 24.5009 28.1842 24.5909 28.0327C24.6832 27.8812 24.7472 27.7083 24.7827 27.5142L26.3381 27.5213C26.2978 27.8551 26.1972 28.1771 26.0362 28.4872C25.8776 28.795 25.6634 29.0708 25.3935 29.3146C25.1259 29.5561 24.8063 29.7479 24.4347 29.8899C24.0653 30.0296 23.6475 30.0994 23.1811 30.0994C22.5324 30.0994 21.9524 29.9527 21.4411 29.6591C20.9321 29.3655 20.5296 28.9406 20.2337 28.3842C19.9401 27.8279 19.7933 27.1544 19.7933 26.3636C19.7933 25.5705 19.9425 24.8958 20.2408 24.3395C20.5391 23.7831 20.9439 23.3594 21.4553 23.0682C21.9666 22.7746 22.5419 22.6278 23.1811 22.6278C23.6025 22.6278 23.9931 22.687 24.353 22.8054C24.7152 22.9238 25.036 23.0966 25.3153 23.3239C25.5947 23.5488 25.822 23.8246 25.9972 24.1513C26.1747 24.478 26.2884 24.852 26.3381 25.2734Z" fill="white"/>
<path d="M57.376 15.154C56.4147 15.154 55.5747 14.9393 54.856 14.51C54.1373 14.0713 53.5773 13.4647 53.176 12.69C52.7747 11.906 52.574 10.9913 52.574 9.946C52.574 8.90067 52.7793 7.986 53.19 7.202C53.6007 6.418 54.17 5.80667 54.898 5.368C55.6353 4.92933 56.4847 4.71 57.446 4.71C58.2113 4.71 58.902 4.85467 59.518 5.144C60.134 5.424 60.6473 5.82067 61.058 6.334C61.4687 6.84733 61.7347 7.44933 61.856 8.14H60.386C60.1993 7.47733 59.84 6.95933 59.308 6.586C58.776 6.21267 58.1413 6.026 57.404 6.026C56.7227 6.026 56.1253 6.18933 55.612 6.516C55.108 6.83333 54.716 7.286 54.436 7.874C54.156 8.45267 54.016 9.13867 54.016 9.932C54.016 10.716 54.156 11.402 54.436 11.99C54.716 12.578 55.1127 13.0353 55.626 13.362C56.1393 13.6793 56.732 13.838 57.404 13.838C58.1507 13.838 58.7947 13.656 59.336 13.292C59.8867 12.9187 60.2553 12.4193 60.442 11.794H61.898C61.758 12.466 61.4733 13.054 61.044 13.558C60.624 14.062 60.0967 14.454 59.462 14.734C58.8367 15.014 58.1413 15.154 57.376 15.154ZM66.3103 15.168C65.6476 15.168 65.0596 15.0187 64.5463 14.72C64.033 14.412 63.6316 13.992 63.3423 13.46C63.053 12.9187 62.9083 12.2933 62.9083 11.584C62.9083 10.8653 63.0483 10.2353 63.3283 9.694C63.6176 9.15267 64.0096 8.728 64.5043 8.42C65.0083 8.112 65.5916 7.958 66.2543 7.958C66.9076 7.958 67.4723 8.098 67.9483 8.378C68.4336 8.658 68.807 9.05 69.0683 9.554C69.339 10.058 69.4743 10.6507 69.4743 11.332V11.822L63.6083 11.836L63.6363 10.954H68.1583C68.1583 10.3847 67.9856 9.92733 67.6403 9.582C67.295 9.23667 66.833 9.064 66.2543 9.064C65.8156 9.064 65.4376 9.162 65.1203 9.358C64.8123 9.54467 64.5743 9.82467 64.4063 10.198C64.2476 10.562 64.1683 11.0007 64.1683 11.514C64.1683 12.3353 64.355 12.97 64.7283 13.418C65.1016 13.8567 65.6383 14.076 66.3383 14.076C66.8516 14.076 67.2716 13.9733 67.5983 13.768C67.925 13.5627 68.1443 13.264 68.2563 12.872H69.4883C69.3203 13.6 68.961 14.1647 68.4103 14.566C67.8596 14.9673 67.1596 15.168 66.3103 15.168ZM74.8642 8.098V9.302H74.2762C73.6509 9.302 73.1562 9.484 72.7922 9.848C72.4375 10.2027 72.2602 10.7113 72.2602 11.374V15H70.9442V8.168H72.1762L72.2882 9.54H72.1622C72.2555 9.092 72.4795 8.728 72.8342 8.448C73.1889 8.15867 73.6322 8.014 74.1642 8.014C74.2855 8.014 74.3975 8.02333 74.5002 8.042C74.6122 8.05133 74.7335 8.07 74.8642 8.098ZM75.6439 8.154H79.6479V9.26H75.6439V8.154ZM78.3039 15H76.9879V6.012H78.3039V15ZM80.829 15V8.154H82.145V15H80.829ZM81.473 6.53C81.2396 6.53 81.0343 6.446 80.857 6.278C80.689 6.10067 80.605 5.89533 80.605 5.662C80.605 5.41933 80.689 5.214 80.857 5.046C81.0343 4.878 81.2396 4.794 81.473 4.794C81.7156 4.794 81.921 4.878 82.089 5.046C82.257 5.214 82.341 5.41933 82.341 5.662C82.341 5.89533 82.257 6.10067 82.089 6.278C81.921 6.446 81.7156 6.53 81.473 6.53ZM83.3275 8.154H90.0055V9.26H83.3275V8.154ZM87.2475 4.752V5.886C87.1635 5.886 87.0702 5.886 86.9675 5.886C86.8742 5.886 86.7715 5.886 86.6595 5.886C86.2582 5.886 85.9875 5.98867 85.8475 6.194C85.7168 6.39933 85.6515 6.68867 85.6515 7.062V15H84.3355V7.062C84.3355 6.502 84.4288 6.04933 84.6155 5.704C84.8022 5.34933 85.0542 5.09267 85.3715 4.934C85.6888 4.77533 86.0435 4.696 86.4355 4.696C86.5662 4.696 86.7015 4.70067 86.8415 4.71C86.9815 4.71933 87.1168 4.73333 87.2475 4.752ZM88.6895 15V8.154H90.0055V15H88.6895ZM89.3475 6.474C89.1048 6.474 88.9042 6.39467 88.7455 6.236C88.5868 6.068 88.5075 5.86733 88.5075 5.634C88.5075 5.39133 88.5868 5.19067 88.7455 5.032C88.9042 4.87333 89.1048 4.794 89.3475 4.794C89.5808 4.794 89.7768 4.87333 89.9355 5.032C90.0942 5.19067 90.1735 5.39133 90.1735 5.634C90.1735 5.86733 90.0942 6.068 89.9355 6.236C89.7768 6.39467 89.5808 6.474 89.3475 6.474ZM91.4278 11.584C91.4278 10.8653 91.5678 10.2353 91.8478 9.694C92.1372 9.15267 92.5338 8.728 93.0378 8.42C93.5418 8.112 94.1252 7.958 94.7878 7.958C95.6465 7.958 96.3605 8.18667 96.9298 8.644C97.4992 9.10133 97.8398 9.708 97.9518 10.464H96.6358C96.5238 10.0253 96.3045 9.694 95.9778 9.47C95.6512 9.246 95.2685 9.134 94.8298 9.134C94.4192 9.134 94.0552 9.23667 93.7378 9.442C93.4205 9.638 93.1732 9.918 92.9958 10.282C92.8185 10.646 92.7298 11.0753 92.7298 11.57C92.7298 12.0647 92.8138 12.494 92.9818 12.858C93.1498 13.2127 93.3878 13.4927 93.6958 13.698C94.0038 13.894 94.3632 13.992 94.7738 13.992C95.2405 13.992 95.6418 13.8753 95.9778 13.642C96.3138 13.4087 96.5378 13.0913 96.6498 12.69H97.9658C97.8818 13.1847 97.6905 13.6187 97.3918 13.992C97.1025 14.356 96.7292 14.6453 96.2718 14.86C95.8238 15.0653 95.3245 15.168 94.7738 15.168C94.1018 15.168 93.5138 15.0187 93.0098 14.72C92.5152 14.4213 92.1278 14.006 91.8478 13.474C91.5678 12.9327 91.4278 12.3027 91.4278 11.584ZM101.356 15.168C100.628 15.168 100.054 14.9767 99.6343 14.594C99.2237 14.2113 99.0183 13.712 99.0183 13.096C99.0183 12.4707 99.2423 11.9713 99.6903 11.598C100.138 11.2153 100.764 10.9913 101.566 10.926L103.722 10.758V10.562C103.722 10.1793 103.652 9.876 103.512 9.652C103.372 9.41867 103.181 9.25533 102.938 9.162C102.696 9.05933 102.42 9.008 102.112 9.008C101.562 9.008 101.132 9.12467 100.824 9.358C100.526 9.582 100.376 9.904 100.376 10.324H99.2283C99.2283 9.848 99.3497 9.43267 99.5923 9.078C99.835 8.72333 100.176 8.448 100.614 8.252C101.062 8.056 101.58 7.958 102.168 7.958C102.738 7.958 103.232 8.06067 103.652 8.266C104.082 8.462 104.413 8.76533 104.646 9.176C104.889 9.57733 105.01 10.086 105.01 10.702V15H103.89L103.75 13.894C103.573 14.286 103.265 14.5987 102.826 14.832C102.397 15.056 101.907 15.168 101.356 15.168ZM101.734 14.146C102.36 14.146 102.85 13.9593 103.204 13.586C103.559 13.2033 103.736 12.69 103.736 12.046V11.682L101.986 11.822C101.408 11.878 100.988 12.0133 100.726 12.228C100.474 12.4427 100.348 12.718 100.348 13.054C100.348 13.418 100.47 13.6933 100.712 13.88C100.964 14.0573 101.305 14.146 101.734 14.146ZM105.995 8.154H109.999V9.26H105.995V8.154ZM108.655 15H107.339V6.012H108.655V15ZM114.066 15.168C113.403 15.168 112.815 15.0187 112.302 14.72C111.789 14.412 111.387 13.992 111.098 13.46C110.809 12.9187 110.664 12.2933 110.664 11.584C110.664 10.8653 110.804 10.2353 111.084 9.694C111.373 9.15267 111.765 8.728 112.26 8.42C112.764 8.112 113.347 7.958 114.01 7.958C114.663 7.958 115.228 8.098 115.704 8.378C116.189 8.658 116.563 9.05 116.824 9.554C117.095 10.058 117.23 10.6507 117.23 11.332V11.822L111.364 11.836L111.392 10.954H115.914C115.914 10.3847 115.741 9.92733 115.396 9.582C115.051 9.23667 114.589 9.064 114.01 9.064C113.571 9.064 113.193 9.162 112.876 9.358C112.568 9.54467 112.33 9.82467 112.162 10.198C112.003 10.562 111.924 11.0007 111.924 11.514C111.924 12.3353 112.111 12.97 112.484 13.418C112.857 13.8567 113.394 14.076 114.094 14.076C114.607 14.076 115.027 13.9733 115.354 13.768C115.681 13.5627 115.9 13.264 116.012 12.872H117.244C117.076 13.6 116.717 14.1647 116.166 14.566C115.615 14.9673 114.915 15.168 114.066 15.168ZM119.256 15.168C118.986 15.168 118.748 15.0747 118.542 14.888C118.346 14.692 118.248 14.4587 118.248 14.188C118.248 13.908 118.346 13.6747 118.542 13.488C118.748 13.292 118.986 13.194 119.256 13.194C119.527 13.194 119.76 13.292 119.956 13.488C120.152 13.6747 120.25 13.908 120.25 14.188C120.25 14.4587 120.152 14.692 119.956 14.888C119.76 15.0747 119.527 15.168 119.256 15.168ZM124.466 15.168C123.803 15.168 123.234 15.0187 122.758 14.72C122.282 14.412 121.913 13.9873 121.652 13.446C121.4 12.9047 121.274 12.2887 121.274 11.598C121.274 10.898 121.404 10.2773 121.666 9.736C121.927 9.18533 122.3 8.75133 122.786 8.434C123.271 8.11667 123.85 7.958 124.522 7.958C125.054 7.958 125.525 8.07 125.936 8.294C126.356 8.50867 126.682 8.83067 126.916 9.26V4.696H128.218V15H127.042L126.93 13.754C126.706 14.2113 126.374 14.5613 125.936 14.804C125.506 15.0467 125.016 15.168 124.466 15.168ZM124.732 13.978C125.18 13.978 125.562 13.8753 125.88 13.67C126.206 13.4647 126.458 13.18 126.636 12.816C126.813 12.452 126.902 12.032 126.902 11.556C126.902 11.08 126.813 10.6647 126.636 10.31C126.458 9.946 126.206 9.66133 125.88 9.456C125.562 9.25067 125.18 9.148 124.732 9.148C124.284 9.148 123.901 9.25533 123.584 9.47C123.266 9.67533 123.024 9.96 122.856 10.324C122.688 10.6787 122.604 11.0893 122.604 11.556C122.604 12.032 122.688 12.452 122.856 12.816C123.024 13.18 123.266 13.4647 123.584 13.67C123.901 13.8753 124.284 13.978 124.732 13.978ZM129.668 11.57C129.668 10.87 129.822 10.2493 130.13 9.708C130.438 9.16667 130.858 8.742 131.39 8.434C131.931 8.126 132.547 7.972 133.238 7.972C133.929 7.972 134.54 8.126 135.072 8.434C135.604 8.742 136.024 9.16667 136.332 9.708C136.64 10.2493 136.794 10.87 136.794 11.57C136.794 12.27 136.64 12.8907 136.332 13.432C136.024 13.9733 135.604 14.398 135.072 14.706C134.54 15.014 133.929 15.168 133.238 15.168C132.547 15.168 131.931 15.014 131.39 14.706C130.858 14.398 130.438 13.9733 130.13 13.432C129.822 12.8907 129.668 12.27 129.668 11.57ZM130.998 11.57C130.998 12.046 131.091 12.466 131.278 12.83C131.474 13.194 131.74 13.4787 132.076 13.684C132.412 13.8893 132.799 13.992 133.238 13.992C133.677 13.992 134.064 13.8893 134.4 13.684C134.736 13.4787 134.997 13.194 135.184 12.83C135.38 12.466 135.478 12.046 135.478 11.57C135.478 11.0847 135.38 10.6647 135.184 10.31C134.997 9.946 134.736 9.66133 134.4 9.456C134.064 9.25067 133.677 9.148 133.238 9.148C132.799 9.148 132.412 9.25067 132.076 9.456C131.74 9.66133 131.474 9.946 131.278 10.31C131.091 10.6647 130.998 11.0847 130.998 11.57ZM137.803 11.584C137.803 10.8653 137.943 10.2353 138.223 9.694C138.512 9.15267 138.909 8.728 139.413 8.42C139.917 8.112 140.5 7.958 141.163 7.958C142.021 7.958 142.735 8.18667 143.305 8.644C143.874 9.10133 144.215 9.708 144.327 10.464H143.011C142.899 10.0253 142.679 9.694 142.353 9.47C142.026 9.246 141.643 9.134 141.205 9.134C140.794 9.134 140.43 9.23667 140.113 9.442C139.795 9.638 139.548 9.918 139.371 10.282C139.193 10.646 139.105 11.0753 139.105 11.57C139.105 12.0647 139.189 12.494 139.357 12.858C139.525 13.2127 139.763 13.4927 140.071 13.698C140.379 13.894 140.738 13.992 141.149 13.992C141.615 13.992 142.017 13.8753 142.353 13.642C142.689 13.4087 142.913 13.0913 143.025 12.69H144.341C144.257 13.1847 144.065 13.6187 143.767 13.992C143.477 14.356 143.104 14.6453 142.647 14.86C142.199 15.0653 141.699 15.168 141.149 15.168C140.477 15.168 139.889 15.0187 139.385 14.72C138.89 14.4213 138.503 14.006 138.223 13.474C137.943 12.9327 137.803 12.3027 137.803 11.584Z" fill="#344054"/>
<path d="M59.238 35H52.63V34.202L55.836 31.402C56.3027 31.0007 56.6853 30.646 56.984 30.338C57.2827 30.03 57.516 29.75 57.684 29.498C57.8613 29.2367 57.9827 28.98 58.048 28.728C58.1227 28.476 58.16 28.2007 58.16 27.902C58.16 27.23 57.9687 26.698 57.586 26.306C57.2033 25.914 56.6807 25.718 56.018 25.718C55.3273 25.718 54.7673 25.9513 54.338 26.418C53.918 26.8847 53.6987 27.5053 53.68 28.28H52.672C52.7 27.58 52.854 26.9687 53.134 26.446C53.414 25.9233 53.8013 25.5173 54.296 25.228C54.8 24.9387 55.3787 24.794 56.032 24.794C56.6667 24.794 57.2173 24.9247 57.684 25.186C58.16 25.438 58.5287 25.7927 58.79 26.25C59.0513 26.698 59.182 27.23 59.182 27.846C59.182 28.2007 59.1353 28.5413 59.042 28.868C58.9487 29.1853 58.7993 29.5027 58.594 29.82C58.3887 30.1373 58.118 30.4733 57.782 30.828C57.446 31.1827 57.026 31.5793 56.522 32.018L53.722 34.468L53.414 34.062H59.238V35ZM60.6313 29.988C60.6313 28.9427 60.79 28.0327 61.1073 27.258C61.434 26.4833 61.896 25.8767 62.4933 25.438C63.1 24.9993 63.8187 24.78 64.6493 24.78C65.48 24.78 66.194 24.9993 66.7913 25.438C67.3887 25.8767 67.846 26.4833 68.1633 27.258C68.49 28.0327 68.6533 28.9427 68.6533 29.988C68.6533 31.0333 68.4947 31.9433 68.1773 32.718C67.86 33.4927 67.4027 34.0993 66.8053 34.538C66.208 34.9673 65.4893 35.182 64.6493 35.182C63.8093 35.182 63.086 34.9673 62.4793 34.538C61.882 34.0993 61.4247 33.4927 61.1073 32.718C60.79 31.9433 60.6313 31.0333 60.6313 29.988ZM61.6253 29.988C61.6253 30.856 61.742 31.612 61.9753 32.256C62.218 32.9 62.5633 33.3993 63.0113 33.754C63.4593 34.0993 64.0053 34.272 64.6493 34.272C65.284 34.272 65.8253 34.0993 66.2733 33.754C66.7307 33.3993 67.076 32.9 67.3093 32.256C67.552 31.612 67.6733 30.856 67.6733 29.988C67.6733 29.1107 67.552 28.3547 67.3093 27.72C67.076 27.076 66.7307 26.5813 66.2733 26.236C65.8253 25.8813 65.284 25.704 64.6493 25.704C64.0053 25.704 63.4593 25.8813 63.0113 26.236C62.5633 26.5813 62.218 27.076 61.9753 27.72C61.742 28.3547 61.6253 29.1107 61.6253 29.988ZM70.188 29.988C70.188 28.9427 70.3466 28.0327 70.664 27.258C70.9906 26.4833 71.4526 25.8767 72.05 25.438C72.6566 24.9993 73.3753 24.78 74.206 24.78C75.0366 24.78 75.7506 24.9993 76.348 25.438C76.9453 25.8767 77.4026 26.4833 77.72 27.258C78.0466 28.0327 78.21 28.9427 78.21 29.988C78.21 31.0333 78.0513 31.9433 77.734 32.718C77.4166 33.4927 76.9593 34.0993 76.362 34.538C75.7646 34.9673 75.046 35.182 74.206 35.182C73.366 35.182 72.6426 34.9673 72.036 34.538C71.4386 34.0993 70.9813 33.4927 70.664 32.718C70.3466 31.9433 70.188 31.0333 70.188 29.988ZM71.182 29.988C71.182 30.856 71.2986 31.612 71.532 32.256C71.7746 32.9 72.12 33.3993 72.568 33.754C73.016 34.0993 73.562 34.272 74.206 34.272C74.8406 34.272 75.382 34.0993 75.83 33.754C76.2873 33.3993 76.6326 32.9 76.866 32.256C77.1086 31.612 77.23 30.856 77.23 29.988C77.23 29.1107 77.1086 28.3547 76.866 27.72C76.6326 27.076 76.2873 26.5813 75.83 26.236C75.382 25.8813 74.8406 25.704 74.206 25.704C73.562 25.704 73.016 25.8813 72.568 26.236C72.12 26.5813 71.7746 27.076 71.532 27.72C71.2986 28.3547 71.182 29.1107 71.182 29.988ZM91.1174 24.976L84.9154 32.718V31.22L89.9134 24.976H91.1174ZM85.0834 24.976V35H84.0754V24.976H85.0834ZM86.9874 29.946L87.6594 29.12L91.1734 35H89.9974L86.9874 29.946ZM93.7104 24.976V35H92.7024V24.976H93.7104ZM96.5804 30.422H93.4584V29.54H96.4824C97.117 29.54 97.6024 29.3767 97.9384 29.05C98.2837 28.714 98.4564 28.2473 98.4564 27.65C98.4564 27.09 98.2744 26.656 97.9104 26.348C97.5464 26.0307 97.0284 25.872 96.3564 25.872H93.0664V24.976H96.3704C97.341 24.976 98.1017 25.2093 98.6524 25.676C99.2124 26.1333 99.4924 26.7633 99.4924 27.566C99.4924 28.2007 99.3384 28.728 99.0304 29.148C98.7317 29.5587 98.279 29.8573 97.6724 30.044V29.876C98.3444 30.044 98.8484 30.338 99.1844 30.758C99.5204 31.1687 99.6884 31.7053 99.6884 32.368C99.6884 32.9 99.5624 33.3667 99.3104 33.768C99.0584 34.16 98.699 34.4633 98.2324 34.678C97.7657 34.8927 97.215 35 96.5804 35H93.0664V34.09H96.5804C97.2337 34.09 97.7424 33.9267 98.1064 33.6C98.4797 33.2733 98.6664 32.8207 98.6664 32.242C98.6664 31.6727 98.4797 31.2293 98.1064 30.912C97.7424 30.5853 97.2337 30.422 96.5804 30.422Z" fill="#475467"/>
</svg>
